# xmcd CD database file
#
# Track frame offsets:
#	150
#	17300
#	34725
#	53262
#	72175
#	92262
#	111687
#	129337
#	144762
#	163637
#
# Disc length: 2391 seconds
#
# Revision: 2
# Processed by: cddbd v1.5.1PL0 Copyright (c) Steve Scherf et al.
# Submitted via: CDex 1.51
#
DISCID=7009550a
DTITLE=Acker Bilk - 36 Golden Greats Vol 3
DYEAR=1900
DGENRE=
TTITLE0=Always on my mind
TTITLE1=Memory
TTITLE2=Ships
TTITLE3=Hello
TTITLE4=Just once
TTITLE5=I just called to say I love you
TTITLE6=Longfellow serenade
TTITLE7=Truly
TTITLE8=One hundred ways
TTITLE9=Still
EXTD=
EXTT0=
EXTT1=
EXTT2=
EXTT3=
EXTT4=
EXTT5=
EXTT6=
EXTT7=
EXTT8=
EXTT9=
PLAYORDER=
